<svg t="1766217795851" class="icon" viewBox="0 0 1024 1024" version="1.1" xmlns="http://www.w3.org/2000/svg" p-id="5905" width="200" height="200"><path d="M274.04522445 601.83358175c14.40907693-0.63756953 27.79804238-1.53016772 41.05949353-1.78519532 57.50879442-1.02011146 113.99747737 5.86564223 167.68085248 27.54301478 26.26787466 10.58365868 51.64315218 22.82499834 74.46815053 40.03938205 18.74455144 14.15404932 22.82499834 31.75097496 14.28156364 57.76382306-5.35558597 16.06675897-16.06675897 28.18058431-29.58323771 38.76424195-31.87848929 24.86522126-65.28714525 47.30767768-103.66884735 59.93156032-26.90544524 8.92597662-54.8310009 15.68421704-82.88407089 20.0196905-36.85153333 5.73812791-74.21312293 8.28840708-111.44719819 11.73128447-7.65083756 0.76508387-15.42918839-0.2550276-23.08002595-0.25502865-3.95293258 0-4.97304404-2.04022292-5.10055837-5.48309926-1.02011146-16.95935611-1.78519533-34.04622654-3.31536304-51.00558265-1.91270965-21.93240015-4.0804469-43.86480135-6.6307261-65.66968823-3.44287632-30.4758359-7.26829562-60.82415746-11.09371387-91.17247799-3.95293258-32.00600256-8.03337948-63.88449187-11.85879774-95.89049547-3.82541825-31.24091975-7.26829562-62.60935279-11.34874252-93.85027149-4.59050212-35.70390755-9.69106049-71.40781508-14.53659021-107.11172368-5.73812791-42.20711931-13.64399306-84.03169774-24.48268039-125.21870558-0.51005625-1.78519533 1.02011146-5.73812791 2.55027918-6.24818311 36.08644947-14.53659126 72.30041328-28.69064057 108.38686274-43.09971749 11.98631207-4.84553077 13.00642353-6.24818416 13.13393786 8.92597662 0.12751432 64.64957571 0.38254193 129.29915144 1.4026534 193.9487282 0.51005625 33.66368461 1.78519533 67.32736923 4.08044691 100.86353951 2.80530679 40.93198024 7.1407813 81.86396047 10.83868628 122.79593967 0 1.78519533 0.76508387 3.44287632 1.14762578 4.46298779z m72.04538463 187.70054404c33.40865702-25.2477632 66.05222911-49.98547119 98.82331658-74.85069245-4.0804469-5.86564223-94.10530014-41.18700785-115.27261644-45.90502429 5.35558597 39.91186877 10.83868627 79.69622322 16.44929986 120.75571674zM719.5789875 776.78272986c-17.21438372-174.05654993-31.75097496-350.02581055-65.03211765-524.97495762 10.83868627-1.27513907 21.67737255-2.80530679 32.64357315-3.69790496 12.6238816-1.14762579 25.37527753-1.657681 37.99915912-2.67779352 10.58365868-0.89259819 14.53659126 1.91270965 15.17416079 12.24134072 1.91270965 27.67052806 3.57039065 55.34105717 5.4831003 83.01158522 2.55027919 37.3615896 5.2280727 74.85069245 7.90586516 112.21228205 1.91270965 26.90544524 3.57039065 53.93840377 5.73812791 80.84384796 2.42276486 29.45572443 5.10055836 58.78393348 7.77835083 88.23965792 1.91270965 21.67737255 3.69790498 43.48225942 5.86564223 65.15963093 2.29525158 23.46256787 4.84553077 46.92513575 7.26829562 70.38770467 0.63756953 6.75823937 1.40265339 13.51647978 1.91270966 20.27471915 0.2550276 3.69790498-1.78519533 4.20796018-5.2280727 3.82541825-18.74455144-1.91270965-37.48910287-3.31536305-57.50879442-4.84553077zM563.50190515 524.68763877c15.17416078-2.16773725 29.83826531-4.59050212 44.50237088-6.24818416 10.58365868-1.27513907 21.29483063-1.40265339 31.8784893-2.42276486 5.73812791-0.51005625 9.43603287 1.53016772 10.32863001 7.14078128 2.42276486 14.91913318 4.97304404 29.96577964 6.75823937 45.01242716 2.93282112 24.99273559 5.2280727 50.11298447 7.9058662 75.10572006 2.29525158 21.93240015 4.59050212 43.73728703 7.1407813 65.66968718 2.80530679 23.46256787 5.86564223 46.79762247 8.79846231 70.13267601 0.89259819 6.88575369 1.53016772 13.89902171 2.4227659 21.42234495-21.42234495 2.67779351-42.33463364 5.35558597-64.39454811 8.28840709-18.36200951-94.61535536-36.72401901-188.4656279-55.34105716-284.10109471zM891.5953145 816.18454238c-20.65726108 0-40.54943831 0.12751432-60.44161554-0.2550276-1.657681 0-4.59050212-2.93282112-4.71801539-4.71801644-3.06033544-31.87848929-5.73812791-63.62946425-8.54343574-95.50795354l-8.03337948-88.74971313c-2.80530679-30.4758359-5.48310029-60.95167075-8.2884071-91.42750663-0.12751432-1.78519533-0.51005625-3.44287632-0.89259713-6.12066985 7.39580995-0.89259819 14.40907693-2.29525158 21.54985822-2.29525157 19.25460769 0 38.50921433 0.51005625 57.89133634 1.02011146 4.97304404 0.12751432 7.1407813 3.44287632 7.39580996 8.03337948 0.63756953 9.56354721 1.53016772 18.99957903 1.53016668 28.56312625 0.12751432 44.88491281-0.12751432 89.89733892 0.25502865 134.78225173 0.38254193 35.83142187 1.53016772 71.79035702 2.29525053 107.62177995v9.05348989zM605.96405205 484.13820045c-4.59050212-36.72401901-9.18100528-72.55544087-13.89902065-109.91703046 11.98631207-0.12751432 23.97262413-0.51005625 35.83142186-0.51005521 3.95293258 0 5.73812791 2.16773725 6.12066983 6.50321176 3.18784872 33.40865702 6.50321177 66.81731297 9.94608808 101.50110905-12.36885399 0.63756953-25.12024991 1.53016772-37.99915912 2.42276486zM846.20034646 384.67731434c10.20111674 0 21.03980301-0.12751432 32.00600258 0 5.48310029 0.12751432 8.16089276 2.29525158 8.16089381 8.79846334-0.38254193 31.11340543-0.12751432 62.22681086-0.12751432 93.21270195v7.01326803c-13.13393786-0.63756953-25.75781946-1.27513907-39.91186774-1.91270965-0.12751432-35.32136562-0.12751432-70.77024555-0.12751433-107.11172367zM560.56908403 491.5340104c-6.37569744-35.57639427-12.87890921-70.89775987-19.38212097-107.11172367 11.60377014-1.78519533 23.20754027-3.69790498 34.68379608-5.10055837 5.10055836-0.63756953 4.20796018 3.82541825 4.46298779 6.63072609 1.40265339 11.98631207 2.42276486 23.8451098 3.69790497 35.83142187 2.04022292 18.74455144 4.0804469 37.48910287 5.99315656 56.10613997 0.2550276 2.42276486 0 4.97304404 0 7.65083755-9.69106049 2.04022292-19.38212097 3.95293258-29.45572443 5.99315656zM793.40956849 385.05985626c10.83868627 0 21.67737255 0.12751432 32.38854451-0.12751327 4.84553077-0.12751432 6.6307261 0.89259819 6.50321175 6.50321175-0.38254193 14.91913318 0.12751432 29.83826531 0.25502865 44.88491178 0.12751432 18.48952383 0 37.10656094 0 55.46857149-10.9662006 1.14762579-20.52974676 2.04022292-30.85837782 3.18784872-2.67779351-36.08644947-5.48310029-72.04538567-8.28840709-109.91703047z" fill="#64748b" p-id="5906"></path></svg>