<svg t="1767075921454" class="icon" viewBox="0 0 1024 1024" version="1.1" xmlns="http://www.w3.org/2000/svg" p-id="5539" width="200" height="200"><path d="M543.660798 207.978373l278.312691 277.748786a51.26408 51.26408 0 0 0-11.021777 6.766859q-207.106884 205.05632-413.649862 410.420225a135.69602 135.69602 0 0 1-61.516896 36.243704c-94.223379 26.75985-188.036646 54.852566-281.952441 82.330113-20.967009 6.100426-37.371514 0.615169-47.931915-15.686808a39.627134 39.627134 0 0 1-3.588485-34.141878q45.009862-154.202353 90.583629-308.199649a50.751439 50.751439 0 0 1 12.457172-20.505632q214.796496-213.053517 430.003103-425.491865c3.075845-3.075845 5.741577-6.613066 8.253517-9.586383zM160.615592 707.956946c-1.435394 4.306183-2.563204 7.382028-3.485958 10.509137-12.713492 43.061827-23.837797 86.636295-38.601852 128.929161-7.689612 22.043554-5.587785 37.576571 13.68751 50.700175a42.446658 42.446658 0 0 1 9.278798 9.278799c4.203655 5.485257 8.868686 5.639049 15.122904 3.742278 35.218423-10.662929 70.48811-20.915745 105.809061-31.322353l54.186133-15.840601a52.545682 52.545682 0 0 0-6.869387-7.689612 44.958598 44.958598 0 0 1-19.685407-42.446658 152.459374 152.459374 0 0 0-0.768961-20.505632c-1.12781-18.762653-2.358148-37.474043-3.588486-56.698073-25.63204-2.101827-50.341327-4.665031-74.896821-5.946633-17.942428-0.922753-34.859574-2.716996-45.830087-19.480351a24.658023 24.658023 0 0 0-4.357447-3.537221zM957.669509 329.628035l-263.497371-263.189787c21.274593-19.326558 38.396796-44.651014 66.335719-58.082203 33.680501-16.199449 75.51199-8.561101 105.398949 20.813217 43.369412 42.651715 86.585031 85.55975 129.03169 129.134217 39.268285 40.242303 38.601852 94.633492-0.512641 134.927059-12.252115 12.5597-24.914343 24.709287-36.756346 36.448761zM921.887181 381.404756l-60.132766 56.390488-275.134317-275.03179 60.081501-56.390488 275.236846 275.236846z" p-id="5540" fill="#64748b"></path></svg>