<svg t="1766215140895" class="icon" viewBox="0 0 1025 1024" version="1.1" xmlns="http://www.w3.org/2000/svg" p-id="10337" width="200" height="200"><path d="M46.34510222 980.64952889c-18.99747555 0-34.45191111-15.33838222-34.45191111-34.18339556v-83.78140444c0-83.67672889 25.31214222-164.24163555 73.20234667-232.97137778 46.76608-67.11409778 111.69109333-118.55758222 187.75950222-148.75079111l12.51896889-4.97550222-10.62001778-8.28984889c-59.85052445-46.70805333-94.17955555-116.50844445-94.17955556-191.50392889 0-134.34083555 110.04814222-243.63235555 245.30830223-243.63235555 135.25447111 0 245.30261333 109.29720889 245.30261333 243.63235555 0 74.99548445-34.32903111 144.79587555-94.17386666 191.51075555l-10.62001778 8.28871112 12.51896888 4.97550222c76.07409778 30.19320889 140.99911111 81.61962667 187.75950223 148.72803556 47.88451555 68.72860445 73.19665778 149.30033778 73.19665777 232.99413333v83.78140444c0 18.84501333-15.45557333 34.17770667-34.4519111 34.17770667H46.34510222zM425.92938667 519.82791111c-190.29902222 0-345.12213333 153.80935111-345.12213334 342.85568v49.60938667H770.9696v-49.60938667c-0.00682667-189.04632889-154.78784-342.85568-345.04021333-342.85568z m-0.04096-418.9184c-97.26634667 0-176.39992889 78.63182222-176.39992889 175.28832 0 96.64967111 79.13244445 175.28035555 176.40106667 175.28035556 97.26065778 0 176.39310222-78.63182222 176.39310222-175.28035556 0-96.65536-79.13244445-175.28718222-176.39424-175.28718222z m479.85777778 754.05539556a424.86328889 424.86328889 0 0 0-6.79253334-68.33834667h40.24775111v-30.64149333c0-118.66339555-80.85048889-221.82115555-196.608-250.85383112l-7.98037333-1.89326222c-14.78542222-5.04035555-24.69432889-17.84945778-24.69432889-31.97610666 0-13.77735111 9.216-26.15068445 23.47690667-31.52099556l0.23210666-0.08760889 0.22186667-0.10467555c47.89703111-21.60071111 78.84117333-69.26449778 78.84117333-121.42023112 0-56.49976889-35.77400889-106.35946667-89.42023111-125.2864-9.00551111-26.27925333-22.17756445-50.84501333-39.18734222-73.09198222-0.69404445-1.12981333-1.39264-2.25507555-2.09123555-3.3792 110.37354667 1.88871111 199.60149333 91.66961778 199.60149333 201.75758222 0 49.94161778-18.76878222 98.00135111-52.84181333 135.32501334l-6.79822223 7.45016889 8.97137778 4.61937777c109.29038222 56.22784 177.17930667 167.52184889 177.17475555 290.46215112v64.80782222c0 18.83932445-15.44988445 34.16632889-34.44622222 34.16632889h-67.90712888v0.00568889z" p-id="10338" fill="#3b82f6" data-spm-anchor-id="a313x.search_index.0.i10.25d33a81kgySWs" class="selected"></path></svg>